<?xml version="1.0" encoding="UTF-8" standalone="no"?><!DOCTYPE svg PUBLIC "-//W3C//DTD SVG 1.1//EN" "http://www.w3.org/Graphics/SVG/1.1/DTD/svg11.dtd"><!-- Generated by graphviz version 2.40.1 (20161225.0304)
 --><!-- Title: AFD Pages: 1 --><svg xmlns="http://www.w3.org/2000/svg" xmlns:xlink="http://www.w3.org/1999/xlink" width="683pt" height="212pt" viewBox="0.00 0.00 682.93 212.46">
<g id="graph0" class="graph" transform="scale(1 1) rotate(0) translate(4 208.463)">
<title>AFD</title>
<polygon fill="#ffffff" stroke="transparent" points="-4,4 -4,-208.463 678.926,-208.463 678.926,4 -4,4"/>
<!-- S0 -->
<g id="node1" class="node">
<title>S0</title>
<ellipse fill="#87ceeb" stroke="#87ceeb" cx="43" cy="-59.5062" rx="43" ry="43"/>
<text text-anchor="middle" x="43" y="-55.3062" font-family="Times,serif" font-size="14.00" fill="#000000">Inicio</text>
</g>
<!-- S1 -->
<g id="node2" class="node">
<title>S1</title>
<ellipse fill="#87ceeb" stroke="#87ceeb" cx="172" cy="-59.5062" rx="43" ry="43"/>
<text text-anchor="middle" x="172" y="-55.3062" font-family="Times,serif" font-size="14.00" fill="#000000">Main</text>
</g>
<!-- S0&#45;&gt;S1 -->
<g id="edge1" class="edge">
<title>S0-&gt;S1</title>
<path fill="none" stroke="#006400" d="M86.314,-59.5062C96.6311,-59.5062 107.7617,-59.5062 118.476,-59.5062"/>
<polygon fill="#006400" stroke="#006400" points="118.5808,-63.0063 128.5807,-59.5062 118.5807,-56.0063 118.5808,-63.0063"/>
<text text-anchor="middle" x="107.5" y="-63.7062" font-family="Times,serif" font-size="14.00" fill="#000000">0</text>
</g>
<!-- S2 -->
<g id="node3" class="node">
<title>S2</title>
<ellipse fill="#87ceeb" stroke="#87ceeb" cx="320.9568" cy="-141.5062" rx="62.9136" ry="62.9136"/>
<text text-anchor="middle" x="320.9568" y="-137.3062" font-family="Times,serif" font-size="14.00" fill="#000000">Analizador Lexico</text>
</g>
<!-- S1&#45;&gt;S2 -->
<g id="edge2" class="edge">
<title>S1-&gt;S2</title>
<path fill="none" stroke="#006400" d="M209.9735,-80.4104C224.2281,-88.2575 240.8529,-97.4094 256.8297,-106.2045"/>
<polygon fill="#006400" stroke="#006400" points="255.1716,-109.287 265.6198,-111.0435 258.5474,-103.1548 255.1716,-109.287"/>
<text text-anchor="middle" x="236.5" y="-99.7062" font-family="Times,serif" font-size="14.00" fill="#000000">1</text>
</g>
<!-- S3 -->
<g id="node4" class="node">
<title>S3</title>
<ellipse fill="#87ceeb" stroke="#87ceeb" cx="486.4198" cy="-59.5062" rx="59.5124" ry="59.5124"/>
<text text-anchor="middle" x="486.4198" y="-55.3062" font-family="Times,serif" font-size="14.00" fill="#000000">Creador de tablas</text>
</g>
<!-- S2&#45;&gt;S3 -->
<g id="edge3" class="edge">
<title>S2-&gt;S3</title>
<path fill="none" stroke="#006400" d="M377.437,-113.5158C392.3226,-106.1388 408.473,-98.135 423.6672,-90.6051"/>
<polygon fill="#006400" stroke="#006400" points="425.5784,-93.5642 432.9843,-85.9877 422.4701,-87.2922 425.5784,-93.5642"/>
<text text-anchor="middle" x="405.4136" y="-104.7062" font-family="Times,serif" font-size="14.00" fill="#000000">0</text>
</g>
<!-- S3&#45;&gt;S1 -->
<g id="edge5" class="edge">
<title>S3-&gt;S1</title>
<path fill="none" stroke="#006400" d="M426.829,-54.8835C412.7649,-53.9781 397.8175,-53.1669 383.9136,-52.7062 327.9827,-50.8531 313.9181,-50.4989 258,-52.7062 247.3394,-53.127 235.9528,-53.8402 225.0697,-54.6503"/>
<polygon fill="#006400" stroke="#006400" points="224.5266,-51.182 214.8297,-55.4505 225.072,-58.1607 224.5266,-51.182"/>
<text text-anchor="middle" x="320.9568" y="-57.7062" font-family="Times,serif" font-size="14.00" fill="#000000">0</text>
</g>
<!-- S4 -->
<g id="node5" class="node">
<title>S4</title>
<ellipse fill="#87ceeb" stroke="#87ceeb" cx="631.926" cy="-59.5062" rx="43" ry="43"/>
<text text-anchor="middle" x="631.926" y="-55.3062" font-family="Times,serif" font-size="14.00" fill="#000000">Fin</text>
</g>
<!-- S3&#45;&gt;S4 -->
<g id="edge4" class="edge">
<title>S3-&gt;S4</title>
<path fill="none" stroke="#006400" d="M546.0226,-59.5062C556.7356,-59.5062 567.8421,-59.5062 578.3708,-59.5062"/>
<polygon fill="#006400" stroke="#006400" points="578.6711,-63.0063 588.671,-59.5062 578.671,-56.0063 578.6711,-63.0063"/>
<text text-anchor="middle" x="567.426" y="-63.7062" font-family="Times,serif" font-size="14.00" fill="#000000">1</text>
</g>
</g>
</svg>